<?xml version="1.0" encoding="utf-8"?>
<!-- Generator: Adobe Illustrator 22.1.0, SVG Export Plug-In . SVG Version: 6.00 Build 0)  -->
<svg version="1.1" id="Layer_1" xmlns="http://www.w3.org/2000/svg" xmlns:xlink="http://www.w3.org/1999/xlink" x="0px" y="0px"
	 viewBox="0 0 149 53" style="enable-background:new 0 0 149 53;" xml:space="preserve">
<style type="text/css">
	.st0{fill:#006CB7;}
	.st1{fill:#ED4144;}
	.st2{fill:#1B6DB4;}
	.st3{fill:#FFFFFF;}
</style>
<g>
	<g>
		<g>
			<path class="st3" d="M70.8,30.5c-4.7,0-7.2-3.1-7.2-8.7c0-5.2,2.5-8.5,7.2-8.5c2.3,0,4.3,0.5,5.7,1.4l-1.2,2.6
				c-0.9-0.7-2.4-1.2-4.1-1.2c-2.8,0-4.2,2-4.2,5.6c0,3.9,1.4,5.8,4.1,5.8c1.6,0,3.3-0.7,4.4-1.5l1,2.6C74.9,29.8,73,30.5,70.8,30.5
				z"/>
			<path class="st3" d="M78.8,30.2V13.1H82v4.5c0,0.8-0.2,1.5-0.3,1.9c0.7-0.8,1.8-1.7,3.5-1.7c3.5,0,4.4,1.8,4.4,4.9v7.5h-3.3V23
				c0-1.7-0.7-2.7-2.2-2.7c-0.8,0-1.6,0.3-2.2,0.7v9.2H78.8z"/>
			<path class="st3" d="M93.2,30.2v-9.8l-1.4-0.3v-2h4.6v12.1H93.2z M93.1,13.1h3.3v2.9h-3.3V13.1z"/>
			<path class="st3" d="M99.4,27V13.1h3.2v13.7c0,1,0.6,1.2,2,1.2v2.3c0,0-0.9,0.2-1.8,0.2C100.3,30.5,99.4,29.1,99.4,27z"/>
			<path class="st3" d="M109.5,25c0,1.9,1.1,3,3.1,3c1.2,0,2.5-0.5,3.6-1l0.6,2.3c-1,0.5-2.7,1.2-4.6,1.2c-3.7,0-6-2.3-6-6.3
				c0-3.7,1.8-6.3,5.7-6.3c3.7,0,5.1,2.7,5.1,5.8V25H109.5z M111.7,20.2c-1.6,0-2.3,1.5-2.3,2.9h4.4
				C113.9,21.5,113.4,20.2,111.7,20.2z"/>
			<path class="st3" d="M64.8,51.7H63L67.5,35h4.1l4.2,16.7h-2.1l-1-4.3h-6.9L64.8,51.7z M68.8,36.6l-2.5,9.2h6.1l-2.2-9.2H68.8z"/>
			<path class="st3" d="M82,52c-1.7,0-3.1-0.9-3.1-3.7v-7.3h-1.8v-1.4h1.8v-2.2l1.9-0.6v2.8h3.5v1.4h-3.5v7.5c0,1.3,0.5,1.9,1.6,1.9
				c0.6,0,1.5-0.3,1.9-0.5l0.4,1.4C84.2,51.6,83,52,82,52z"/>
			<path class="st3" d="M88.1,51.7V41.1l-1.3-0.3v-1.2H90v12.1H88.1z M88,34.8h2v2h-2V34.8z"/>
			<path class="st3" d="M94.7,46.2c0,3,1.5,4.3,3.8,4.3c1.6,0,2.9-0.7,3.8-1.2l0.5,1.3c-1,0.6-2.6,1.3-4.4,1.3
				c-3.3,0-5.5-2.2-5.5-6.4c0-3.8,1.9-6.2,5.2-6.2c3.4,0,4.9,2.8,4.9,5.8v1.1H94.7z M98,40.8c-2.3,0-3.2,2-3.2,4.1h6.3
				C101.1,42.8,100.4,40.8,98,40.8z"/>
			<path class="st3" d="M113.4,51.7v-7.3c0-2.3-0.7-3.6-2.8-3.6c-1.3,0-2.2,0.7-3,1.4v9.5h-1.9V39.6h1.3l0.4,1.4
				c0.7-0.7,2-1.7,3.8-1.7c2.8,0,4.1,1.7,4.1,4.7v7.7H113.4z"/>
			<path class="st3" d="M126.4,50.3c-0.7,0.9-2.1,1.7-3.5,1.7c-2.9,0-4.9-2.1-4.9-6.3c0-3.7,1.8-6.3,5.1-6.3c1.5,0,2.6,0.5,3.2,1
				c-0.1-0.6-0.1-1.3-0.1-2v-3.8h1.9v17.1h-1.4L126.4,50.3z M126.2,41.6c-0.6-0.4-1.6-0.9-2.9-0.9c-2.3,0-3.4,1.8-3.4,4.9
				c0,3,1,4.9,3.2,4.9c1.1,0,2.1-0.5,3.1-1.5V41.6z"/>
			<path class="st3" d="M132.9,46.2c0,3,1.5,4.3,3.8,4.3c1.6,0,2.9-0.7,3.8-1.2l0.5,1.3c-1,0.6-2.6,1.3-4.4,1.3
				c-3.3,0-5.5-2.2-5.5-6.4c0-3.8,1.9-6.2,5.2-6.2c3.4,0,4.9,2.8,4.9,5.8v1.1H132.9z M136.1,40.8c-2.3,0-3.2,2-3.2,4.1h6.3
				C139.2,42.8,138.5,40.8,136.1,40.8z"/>
		</g>
	</g>
	<path class="st3" d="M49,0H24.4v38.9c1.4-2.9,4.3-4.9,7.7-4.9h3.9c4.7,0,8.5,3.8,8.5,8.5v9c0,0.5,0,1-0.1,1.5H49
		c1.6,0,2.9-1.3,2.9-2.9V2.9C51.9,1.3,50.6,0,49,0z M34,33c-3.3,0-5.9-2.7-5.9-6c0-3.3,2.7-6,5.9-6c3.3,0,5.9,2.7,5.9,6
		C40,30.3,37.3,33,34,33z M15.5,38.5h3.2c1.8,0,3.4,0.7,4.7,1.8V0H3.6C1.6,0,0,1.3,0,2.9v47.2C0,51.7,1.6,53,3.6,53h4.9c0,0,0,0,0,0
		v-7.5C8.5,41.6,11.6,38.5,15.5,38.5z M22,32.2c0,2.8-2.2,5-4.9,5c-2.7,0-4.9-2.2-4.9-5c0-2.8,2.2-5,4.9-5
		C19.8,27.2,22,29.4,22,32.2z M5.3,10.1l4.4-1.6L11,3.9l2.9,3.8l4.7-0.2L16,11.4l1.7,4.5l-4.6-1.3l-3.7,3l-0.1-4.8L5.3,10.1z
		 M35.8,50v3H23.9h0h-9.1v-1.4c0-2.1,1.7-3.7,3.7-3.7h1.7c1.9,0,3.5,1.4,3.7,3.3V50c0-2.7,2.2-4.9,4.9-4.9H31
		C33.7,45.2,35.8,47.3,35.8,50z M19.3,41.9c1.4,0,2.6,1.2,2.6,2.7c0,1.5-1.2,2.7-2.6,2.7c-1.4,0-2.6-1.2-2.6-2.7
		C16.7,43.1,17.9,41.9,19.3,41.9z M29.9,44.3c-1.9,0-3.4-1.6-3.4-3.5c0-1.9,1.5-3.5,3.4-3.5c1.9,0,3.4,1.6,3.4,3.5
		C33.3,42.7,31.8,44.3,29.9,44.3z"/>
</g>
</svg>
