<svg id="Layer_1" data-name="Layer 1" xmlns="http://www.w3.org/2000/svg" viewBox="0 0 149 53"><defs><style>.cls-1{fill:#006cb7;}.cls-2{fill:#ed4144;}.cls-3{fill:#1b6db4;}</style></defs><title>cha_color</title><path class="cls-1" d="M70.6,31.46c-4.69,0-7.21-3.12-7.21-8.67,0-5.19,2.49-8.5,7.21-8.5a10.4,10.4,0,0,1,5.68,1.41l-1.23,2.62A7,7,0,0,0,71,17.16c-2.77,0-4.15,1.95-4.15,5.6,0,3.85,1.38,5.83,4.1,5.83a7.69,7.69,0,0,0,4.39-1.53l1,2.62A9.89,9.89,0,0,1,70.6,31.46Z"/><path class="cls-1" d="M78.5,31.21v-17h3.24v4.47a5.4,5.4,0,0,1-.32,1.87,4.27,4.27,0,0,1,3.48-1.65c3.46,0,4.42,1.8,4.42,4.87v7.48H86V24c0-1.73-.69-2.67-2.14-2.67a3.77,3.77,0,0,0-2.15.74v9.14Z"/><path class="cls-1" d="M92.92,31.21V21.43l-1.4-.3v-2h4.61v12.1Zm-.09-17h3.25v2.94H92.83Z"/><path class="cls-1" d="M99.1,28V14.17h3.18V27.82c0,1,.62,1.17,2,1.17v2.27a9.85,9.85,0,0,1-1.77.2C100,31.46,99.1,30.15,99.1,28Z"/><path class="cls-1" d="M109.1,26c0,1.93,1.08,3,3.11,3a8.17,8.17,0,0,0,3.56-1l.61,2.27a9.93,9.93,0,0,1-4.57,1.19c-3.72,0-6-2.33-6-6.33,0-3.73,1.81-6.27,5.68-6.27,3.66,0,5.09,2.72,5.09,5.75V26Zm2.27-4.79c-1.6,0-2.27,1.46-2.27,2.89h4.42C113.52,22.56,113.05,21.23,111.37,21.23Z"/><path class="cls-1" d="M64.6,52.65H62.75L67.32,36h4.07l4.22,16.67H73.54l-1-4.25H65.69Zm4-15-2.47,9.16h6.08L70,37.61Z"/><path class="cls-1" d="M81.76,52.9c-1.7,0-3.11-.87-3.11-3.71V41.91H76.82V40.55h1.83v-2.2l1.88-.59v2.79h3.53v1.36H80.53v7.51c0,1.28.47,1.9,1.6,1.9a5.18,5.18,0,0,0,1.93-.52l.37,1.38A5.93,5.93,0,0,1,81.76,52.9Z"/><path class="cls-1" d="M87.84,52.65V42.06l-1.34-.27V40.55h3.16v12.1Zm-.18-16.87h2v2h-2Z"/><path class="cls-1" d="M94.43,47.14c0,3,1.53,4.3,3.83,4.3A7.42,7.42,0,0,0,102,50.23l.47,1.34a8.73,8.73,0,0,1-4.42,1.33c-3.31,0-5.51-2.2-5.51-6.37,0-3.83,1.88-6.23,5.19-6.23s4.84,2.75,4.84,5.78v1.06Zm3.24-5.4c-2.3,0-3.24,2-3.24,4.1h6.32C100.75,43.74,100,41.74,97.67,41.74Z"/><path class="cls-1" d="M113.05,52.65V45.34c0-2.29-.72-3.55-2.77-3.55a4.45,4.45,0,0,0-3,1.38v9.48h-1.88V40.55h1.26l.37,1.43a5.33,5.33,0,0,1,3.81-1.68c2.84,0,4.1,1.71,4.1,4.72v7.63Z"/><path class="cls-1" d="M126,51.19a4.56,4.56,0,0,1-3.48,1.71c-2.86,0-4.86-2.12-4.86-6.32,0-3.68,1.82-6.28,5.06-6.28a5.07,5.07,0,0,1,3.23,1,17.73,17.73,0,0,1-.09-2V35.61h1.87v17h-1.4Zm-.14-8.59a5.23,5.23,0,0,0-2.94-.86c-2.27,0-3.36,1.77-3.36,4.84s1,4.91,3.23,4.91A4.11,4.11,0,0,0,125.82,50Z"/><path class="cls-1" d="M132.43,47.14c0,3,1.53,4.3,3.83,4.3A7.45,7.45,0,0,0,140,50.23l.46,1.34a8.73,8.73,0,0,1-4.42,1.33c-3.31,0-5.5-2.2-5.5-6.37,0-3.83,1.87-6.23,5.18-6.23s4.84,2.75,4.84,5.78v1.06Zm3.24-5.4c-2.3,0-3.24,2-3.24,4.1h6.33C138.76,43.74,138,41.74,135.67,41.74Z"/><path class="cls-2" d="M48.82.07h-25V39.93A8.42,8.42,0,0,1,32,33.54h3.84A8.43,8.43,0,0,1,44.26,42v9A8.14,8.14,0,0,1,44,52.9h4.79A2.91,2.91,0,0,0,51.73,50V3A2.91,2.91,0,0,0,48.82.07ZM33.91,32.47a6,6,0,1,1,5.92-6A6,6,0,0,1,33.91,32.47Z"/><path class="cls-2" d="M30.88,45.09H28.67a4.85,4.85,0,0,0-4.85,4.85v3H35.73v-3A4.85,4.85,0,0,0,30.88,45.09Z"/><path class="cls-2" d="M33.18,40.76a3.41,3.41,0,1,0-3.41,3.46A3.44,3.44,0,0,0,33.18,40.76Z"/><path class="cls-3" d="M15.42,37.94h3.19a7,7,0,0,1,5.14,2.26,2.68,2.68,0,0,1,.07-.27V.07H3.57C1.6.07,0,1.38,0,3V50C0,51.6,1.6,52.9,3.57,52.9H8.45c0-.16,0-.32,0-.48V44.94A7,7,0,0,1,15.42,37.94Zm6.51-6.24a4.92,4.92,0,1,1-4.91-5A4.95,4.95,0,0,1,21.93,31.7ZM5.28,10.18,9.7,8.57,10.92,4l2.91,3.76,4.71-.23-2.63,3.9,1.72,4.44-4.57-1.33-3.69,3-.15-4.76Z"/><path class="cls-3" d="M20.12,47.79H18.43a3.72,3.72,0,0,0-3.72,3.73V52.9h9.13V51.52A3.72,3.72,0,0,0,20.12,47.79Z"/><path class="cls-3" d="M16.66,44.48a2.62,2.62,0,1,0,2.62-2.65A2.64,2.64,0,0,0,16.66,44.48Z"/></svg>